<?xml version="1.0" encoding="utf-8"?>
<!-- Generator: Adobe Illustrator 15.0.0, SVG Export Plug-In . SVG Version: 6.00 Build 0)  -->
<!DOCTYPE svg PUBLIC "-//W3C//DTD SVG 1.1//EN" "http://www.w3.org/Graphics/SVG/1.1/DTD/svg11.dtd">
<svg version="1.1" id="Layer_1" xmlns="http://www.w3.org/2000/svg" xmlns:xlink="http://www.w3.org/1999/xlink" x="0px" y="0px"
	 width="5000px" height="5000px" viewBox="0 0 5000 5000" enable-background="new 0 0 5000 5000" xml:space="preserve">
<g>
	<path fill="#D71920" d="M1167.124,4269.902c-11.051-36.872-22.123-82.978-31.356-119.85h-1.85
		c-9.201,36.872-18.435,83.938-28.578,119.85l-36.904,131.901h137.43L1167.124,4269.902z"/>
	<path fill="#D71920" d="M3035.395,4269.902c-11.051-36.872-22.145-82.978-31.378-119.85h-1.817
		c-9.213,36.872-18.467,83.938-28.599,119.85l-36.871,131.901h137.375L3035.395,4269.902z"/>
	<path fill="#D71920" d="M2545.719,4345.482c0-129.038-75.643-197.332-197.318-197.332c-30.448,0-51.685,2.843-63.655,5.621v406.591
		c11.971,2.801,32.276,2.801,48.874,2.801C2461.803,4564.039,2545.719,4494.035,2545.719,4345.482z"/>
	<path fill="#D71920" d="M4517.906,205.235v1339.812c0,0-570.303-1334.394-2066.139-1334.394
		c-2249.073,0-2281.37,2281.36-2281.37,2281.36l-10.75,2302.959h3821.217V2733.057l-1.902-27.082
		c-37.685-588.692-239.204-1042.575-598.792-1349.152c-381.24-324.939-865.807-408.141-1193-377.447
		c-742.162,87.188-1082.695,620.499-1148.881,1051.083c-65.301,424.983,87.295,978.718,711.308,1257.808
		c226.658,101.315,478.26,103.582,701.542,46.768c-296.361-112.708-507.396-398.811-507.396-734.692
		c0-434.453,352.288-786.676,786.784-786.676c434.484,0,786.613,352.223,786.613,786.676c0,14.535-1.326,28.749-2.16,43.134
		c19.066,289.842-114.354,571.369-378.824,788.408c-423.797,348.002-1060.872,438.331-1549.211,220.032
		c-682.517-305.36-1052.386-965.647-942.337-1681.927c115.165-749.826,703.421-1294.102,1498.572-1386.516l4.126-0.439
		c528.949-50.316,1124.045,85.884,1528.84,431.022c130.578,111.363,846.505,746.097,846.505,1617.77l-1.134,373.01l1.134,1790.137
		h318.099V205.235H4517.906z M3376.622,4044.953h164.092l129.169,227.748c36.808,65.428,72.782,142.912,101.424,212.977h1.774
		c-8.294-82.035-11.03-165.909-11.03-260v-180.725h129.125v621.472h-147.615l-132.779-239.72
		c-36.807-66.453-78.316-146.672-107.898-219.453h-3.612c4.573,82.998,6.456,170.613,6.456,271.972v187.201h-129.104V4044.953z
		 M2916.445,4044.953h184.398l193.635,621.472h-152.146l-47.923-159.521h-177.965l-44.268,159.521h-144.771L2916.445,4044.953z
		 M2144.581,4054.187c51.641-8.357,118.961-13.872,189.038-13.872c118.94,0,196.456,22.123,255.43,66.39
		c64.551,47.902,105.142,124.487,105.142,234.289c0,118.845-43.328,200.944-102.387,251.688
		c-65.47,54.42-165.995,80.197-287.691,80.197c-72.834,0-125.417-4.615-159.531-9.17V4054.187z M1508.309,4044.953h164.157
		l129.113,227.748c36.852,65.428,72.834,142.912,101.414,212.977h1.827c-8.281-82.035-11.051-165.909-11.051-260v-180.725h129.083
		v621.472h-147.529l-132.771-239.72c-36.903-66.453-78.381-146.672-107.889-219.453h-3.697
		c4.595,82.998,6.434,170.613,6.434,271.972v187.201h-129.093V4044.953z M1048.173,4044.953h184.434l193.665,621.472h-152.156
		l-47.966-159.521h-177.977l-44.255,159.521H859.114L1048.173,4044.953z M652.58,4225.678v-180.725h129.104v621.472h-147.55
		l-132.78-239.72c-36.893-66.453-78.381-146.672-107.891-219.453h-3.696c4.618,82.998,6.454,170.613,6.454,271.972v187.201H267.141
		v-621.472h164.147l129.072,227.748c36.903,65.428,72.876,142.912,101.423,212.977h1.858
		C655.359,4403.643,652.58,4319.769,652.58,4225.678z"/>
</g>
</svg>
